<mxfile host="app.diagrams.net" modified="2023-10-20T06:16:02.001Z" agent="Mozilla/5.0 (Windows NT 10.0; Win64; x64) AppleWebKit/537.36 (KHTML, like Gecko) Chrome/118.0.0.0 Safari/537.36" version="22.0.5" etag="2bLou-i9B74wRfVgJtZG" type="github">
  <diagram name="Page-1" id="oSbqw1rXtn5I5hdM9zfY">
    <mxGraphModel>
      <root>
        <mxCell id="0" />
        <mxCell id="1" parent="0" />
      </root>
    </mxGraphModel>
  </diagram>
</mxfile>
